<svg xmlns="http://www.w3.org/2000/svg" viewBox="0 0 100 100" width="32" height="32">
  <!-- Trash can on wheels -->
  <rect x="55" y="45" width="30" height="40" rx="3" fill="#4A7C39"/>
  <rect x="52" y="40" width="36" height="8" rx="2" fill="#5A9C45"/>
  <rect x="65" y="35" width="12" height="5" rx="2" fill="#3D6830"/>
  <!-- Wheels -->
  <circle cx="62" cy="88" r="5" fill="#333"/>
  <circle cx="78" cy="88" r="5" fill="#333"/>
  <circle cx="62" cy="88" r="2" fill="#666"/>
  <circle cx="78" cy="88" r="2" fill="#666"/>

  <!-- Runner pushing can - skinny guy -->
  <!-- Back leg (extended behind) -->
  <path d="M25 60 L12 80" stroke="#F5D0C5" stroke-width="5" stroke-linecap="round"/>
  <path d="M12 80 L8 90" stroke="#F5D0C5" stroke-width="4" stroke-linecap="round"/>
  <!-- Running shoe back -->
  <ellipse cx="6" cy="92" rx="6" ry="3" fill="#E86A33"/>

  <!-- Front leg (bent forward) -->
  <path d="M32 58 L40 72" stroke="#F5D0C5" stroke-width="5" stroke-linecap="round"/>
  <path d="M40 72 L35 85" stroke="#F5D0C5" stroke-width="4" stroke-linecap="round"/>
  <!-- Running shoe front -->
  <ellipse cx="33" cy="88" rx="6" ry="3" fill="#E86A33"/>

  <!-- Short shorts -->
  <path d="M22 52 L25 60 L32 58 L35 50 Z" fill="#2D5016"/>
  <ellipse cx="28" cy="50" rx="8" ry="6" fill="#2D5016"/>

  <!-- Torso (leaning forward) -->
  <ellipse cx="30" cy="42" rx="6" ry="10" fill="#E86A33" transform="rotate(-15 30 42)"/>

  <!-- Arms pushing -->
  <path d="M35 38 L48 45 L55 48" stroke="#F5D0C5" stroke-width="4" stroke-linecap="round"/>
  <path d="M32 45 L45 50 L55 52" stroke="#F5D0C5" stroke-width="4" stroke-linecap="round"/>

  <!-- Head -->
  <circle cx="38" cy="28" r="10" fill="#F5D0C5"/>

  <!-- Red hair (messy runner hair) -->
  <ellipse cx="38" cy="22" rx="10" ry="6" fill="#C94420"/>
  <path d="M28 24 Q30 18 35 20" stroke="#C94420" stroke-width="3" fill="none"/>
  <path d="M48 24 Q46 16 40 18" stroke="#C94420" stroke-width="3" fill="none"/>
  <path d="M42 18 Q44 14 46 18" stroke="#C94420" stroke-width="2" fill="none"/>
  <path d="M34 19 Q32 15 36 17" stroke="#C94420" stroke-width="2" fill="none"/>

  <!-- Face -->
  <circle cx="35" cy="27" r="2" fill="#333"/>
  <circle cx="42" cy="27" r="2" fill="#333"/>
  <path d="M36 32 Q38 34 40 32" stroke="#333" stroke-width="1.5" fill="none" stroke-linecap="round"/>

  <!-- Motion lines -->
  <path d="M2 35 L10 35" stroke="#999" stroke-width="2" stroke-linecap="round" opacity="0.6"/>
  <path d="M0 45 L8 45" stroke="#999" stroke-width="2" stroke-linecap="round" opacity="0.6"/>
  <path d="M3 55 L10 55" stroke="#999" stroke-width="2" stroke-linecap="round" opacity="0.6"/>
</svg>
